<?xml version="1.0" standalone="no"?><!DOCTYPE svg PUBLIC "-//W3C//DTD SVG 1.1//EN" "http://www.w3.org/Graphics/SVG/1.1/DTD/svg11.dtd"><svg t="1773809753746" class="icon" viewBox="0 0 1024 1024" version="1.1" xmlns="http://www.w3.org/2000/svg" p-id="6665" xmlns:xlink="http://www.w3.org/1999/xlink" width="200" height="200"><path d="M1018.667563 821.02335c0 108.884932-89.103309 197.988241-197.988242 197.988241h-617.530656C94.263733 1018.839577 5.160423 929.908282 5.160423 821.02335v-617.530657C5.160423 94.607761 94.263733 5.504452 203.148665 5.504452h617.530656c108.884932 0 197.988241 89.103309 197.988242 197.988241v617.530657z m0 0" fill="#9C20E5" p-id="6666"></path><path d="M514.150176 541.50042c-82.910801 0-149.996304-67.085503-149.996304-149.996304s67.085503-149.996304 149.996304-149.996305 149.996304 67.085503 149.996305 149.996305c0 39.73526-15.825298 77.922392-43.863598 106.132706-28.210314 28.0383-66.397447 43.863598-106.132707 43.863598z m0-266.621871c-47.131866 0-89.791366 28.382328-107.852847 72.073912-18.061482 43.51957-8.084663 93.74769 25.286074 127.118428 33.370737 33.370737 83.598858 43.347556 127.118428 25.286074 43.51957-18.061482 72.073912-60.548967 72.073912-107.852847-0.172014-64.333277-52.29229-116.453553-116.625567-116.625567z m0 0" fill="#FFFFFF" p-id="6667"></path><path d="M264.04166 792.124979c-9.288762 0-16.685369-7.396607-16.685369-16.685369 0-106.132706 62.957164-202.288594 160.317151-244.604065 97.359987-42.315471 210.545271-22.877877 288.295649 49.540064 6.020494 6.364522 6.020494 16.341341 0 22.705863-6.020494 6.364522-15.825298 7.052579-22.705862 1.548127-67.945574-63.473207-167.025701-80.502604-252.344701-43.347556-85.146985 37.155048-140.363514 121.269948-140.1915 214.157567 0 4.472367-1.720141 8.600706-4.816395 11.69696-3.096254 3.268268-7.396607 4.988409-11.868973 4.988409z m0 0" fill="#FFFFFF" p-id="6668"></path><path d="M581.923736 753.24979h-92.88762c-9.460776 0-18.233496-3.78431-24.942046-10.320847-6.70855-6.70855-10.320847-15.653284-10.320846-24.942046 0-9.460776 3.612296-18.233496 10.320846-24.942046 6.70855-6.70855 15.48127-10.320847 24.942046-10.320846h92.88762c9.460776 0 18.233496 3.78431 24.942046 10.320846 6.70855 6.70855 10.320847 15.653284 10.320847 24.942046 0 5.160423 4.300353 9.460776 9.460776 9.460776s9.460776-4.300353 9.460776-9.460776c0-29.930455-24.426004-54.356459-54.356459-54.356459h-92.88762c-14.449185 0-28.0383 5.676466-38.359147 15.997313-10.320847 10.320847-15.997312 23.909961-15.997312 38.359146 0 14.965228 6.020494 28.554342 15.997312 38.359147 9.804804 9.804804 23.393919 15.997312 38.359147 15.997312h92.88762c5.160423 0 9.460776-4.300353 9.460776-9.460776 0.172014-5.504452-3.956325-9.63279-9.288762-9.63279z m0 0" fill="#FFFFFF" p-id="6669"></path><path d="M786.964556 719.36301c0-14.449185-5.676466-28.0383-15.997313-38.359146-10.320847-10.320847-23.909961-15.997312-38.359146-15.997313h-92.88762c-5.160423 0-9.460776 4.300353-9.460776 9.460776s4.300353 9.460776 9.460776 9.460776h92.88762c9.460776 0 18.233496 3.78431 24.942046 10.320847 6.70855 6.70855 10.320847 15.653284 10.320846 24.942046 0 9.460776-3.612296 18.233496-10.320846 24.942046-6.70855 6.70855-15.653284 10.320847-24.942046 10.320847h-92.88762c-9.460776 0-18.233496-3.78431-24.942046-10.320847-6.70855-6.70855-10.320847-15.653284-10.320847-24.942046 0-5.160423-4.300353-9.460776-9.460776-9.460776s-9.460776 4.300353-9.460776 9.460776c0 14.449185 5.676466 28.0383 15.997313 38.359147 10.320847 10.320847 23.909961 15.997312 38.359146 15.997312h92.88762c14.449185 0 28.0383-5.676466 38.359147-15.997312 10.320847-10.148833 15.997312-23.737947 15.825298-38.187133z m0 0" fill="#FFFFFF" p-id="6670"></path><path d="M820.679321 4.816395h-617.530656C96.67193 4.816395 9.288762 89.96338 5.332437 195.580044v632.151856c1.892155 51.088191 23.393919 97.359987 57.108685 131.590794L959.494709 62.097094C923.715774 26.662187 874.691752 4.816395 820.679321 4.816395z" opacity=".1" p-id="6671"></path></svg>