<?xml version="1.0" standalone="no"?><!DOCTYPE svg PUBLIC "-//W3C//DTD SVG 1.1//EN" "http://www.w3.org/Graphics/SVG/1.1/DTD/svg11.dtd"><svg t="1773809936982" class="icon" viewBox="0 0 1024 1024" version="1.1" xmlns="http://www.w3.org/2000/svg" p-id="12162" xmlns:xlink="http://www.w3.org/1999/xlink" width="200" height="200"><path d="M855.2 431.3c-4.2-84.3-37.9-162.8-94.9-220.9-58.4-59.6-136.4-92.4-219.6-92.4-42.5 0-83.7 8.5-122.6 25.3-37.4 16.1-71 39.2-99.9 68.5-28.8 29.2-51.5 63.2-67.3 100.9-16.4 39.1-24.7 80.4-24.7 122.8 0 37.3-16.3 73.8-33.6 112.3-7.4 16.5-15 33.5-21.3 50.6-5.5 15-3.3 31.8 5.9 44.9 9.2 13.1 24.2 20.9 40.2 20.9h49.1v65.3c0 37 28 67.5 65 70.9l3.7 0.3c18.9 1.7 38.4 3.4 52.1 13.3 15.5 11.1 23.3 33.1 23.9 67.5 0.2 13.6 11.4 24.6 25 24.6h313.7c13.8 0 25-11.2 25-25V631.8c30.6-16.9 87-66.4 80.3-200.5zM776 565.7c-14.9 19.5-30.3 25-32.4 25.7-11.5 2.5-18.7 12.4-18.7 24.2V856H459.5c-4.6-38.1-18.9-65.3-43.2-82.7-24.8-17.7-53.6-20.3-76.7-22.4l-3.6-0.3c-11.2-1-19.6-10.1-19.6-21.1v-90.3c0-13.8-11.2-25-25-25h-72.7c5.6-15 12.3-30.1 19.4-46 18.7-41.7 38-84.8 38-132.8 0-70.9 27.6-137.9 77.6-188.6 50.2-50.8 116.6-78.8 187-78.8 69.7 0 135 27.5 183.9 77.4 48.4 49.4 77.1 116.3 80.7 188.4 2.8 57.4-7.3 103-29.3 131.9z" fill="#9F7C57" p-id="12163"></path><path d="M652 312.7c-25.7-1-46.9 19.6-46.9 45.1 0 2.4 0.2 4.8 0.6 7.1l-77.1 70.8-61.6-53c0.3-1.9 0.4-3.9 0.4-5.9 0-25.5-21.2-46.1-46.9-45.1-23.4 0.9-42.4 19.9-43.3 43.3-1 25.7 19.6 46.9 45.1 46.9 4.1 0 8-0.6 11.8-1.6l70.8 60.9v140.5c0 13.8 11.2 25 25 25s25-11.2 25-25V479.5l84.7-77.8c3.4 0.8 7 1.3 10.7 1.3 25.5 0 46.1-21.2 45.1-46.9-0.9-23.4-20-42.5-43.4-43.4z" fill="#9F7C57" p-id="12164"></path></svg>