<?xml version="1.0" standalone="no"?><!DOCTYPE svg PUBLIC "-//W3C//DTD SVG 1.1//EN" "http://www.w3.org/Graphics/SVG/1.1/DTD/svg11.dtd"><svg t="1773809974471" class="icon" viewBox="0 0 1024 1024" version="1.1" xmlns="http://www.w3.org/2000/svg" p-id="13599" xmlns:xlink="http://www.w3.org/1999/xlink" width="200" height="200"><path d="M644.992 634.944l-226.368 89.728a31.872 31.872 0 0 0-17.536 41.664c6.656 16.384 25.408 24.32 41.664 17.536l208.512-84.992h244.672v63.744h-249.728L404.48 875.136a31.936 31.936 0 0 1-34.88-5.248L117.12 642.816a32.064 32.064 0 0 0-42.048 48.32l283.84 254.848a32 32 0 0 0 34.368 4.928l259.904-124.16h306.752V634.944h-314.944zM223.744 570.24h127.552a32 32 0 0 0 32-32V217.472a32 32 0 0 0-32-32H223.744a32 32 0 0 0-32 32V538.24a32 32 0 0 0 32 32z m32-320.768h63.552V506.24h-63.552V249.472zM735.68 570.24h127.552a32 32 0 0 0 32-32v-384a32 32 0 0 0-32-32h-127.552a32 32 0 0 0-32 32v384a32 32 0 0 0 32 32z m32-384h63.552v320h-63.552v-320zM479.488 570.24h127.552a32 32 0 0 0 32-32V89.6a32 32 0 0 0-32-32H479.488a32 32 0 0 0-32 32v448.64a32 32 0 0 0 32 32z m32-448.64h63.552v384.64h-63.552V121.6z" fill="#13227a" p-id="13600"></path></svg>