<?xml version="1.0" standalone="no"?><!DOCTYPE svg PUBLIC "-//W3C//DTD SVG 1.1//EN" "http://www.w3.org/Graphics/SVG/1.1/DTD/svg11.dtd"><svg t="1773809770401" class="icon" viewBox="0 0 1024 1024" version="1.1" xmlns="http://www.w3.org/2000/svg" p-id="6821" xmlns:xlink="http://www.w3.org/1999/xlink" width="200" height="200"><path d="M188.8 266.9h-0.6v31.8h648l0.2-25.9c0-0.6-0.2-1.2-0.2-1.8v-4.1h-0.4c-2.9-20.2-20-35.8-40.9-35.8H229.8c-21 0-38.1 15.6-41 35.8z" fill="#D6B585" p-id="6822"></path><path d="M787.6 329.5H240.9c-5.5 0-10-4.5-10-10V137c0-5.5 4.5-10 10-10h546.7c5.5 0 10 4.5 10 10v182.6c0 5.4-4.5 9.9-10 9.9z" fill="#78909C" p-id="6823"></path><path d="M269.4 175.2h491.9v150.6H269.4V175.2z" fill="#FFFFFF" p-id="6824"></path><path d="M722.9 238.8H436.2v-28.5h286.7v28.5z m-59.2 23.3H436.2v28.5h227.5v-28.5z" fill="#78909C" p-id="6825"></path><path d="M326.5 240c0-17 13.8-30.7 30.7-30.7 17 0 30.7 13.8 30.7 30.7 0 17-13.8 30.7-30.7 30.7-17 0.1-30.7-13.7-30.7-30.7z m84.5 65.2s-14.6-30.7-53.8-30.7-53.8 30.7-53.8 30.7v15.4H411v-15.4z" fill="#FFB74D" p-id="6826"></path><path d="M188.3 299.8h648.1V897H188.3V299.8z" fill="#EEDBC3" p-id="6827"></path><path d="M187.5 299.8H523V897H187.5V299.8z" fill="#DCC9A5" p-id="6828"></path><path d="M188.8 865.2h-0.6V897h648l0.2-25.9c0-0.6-0.2-1.2-0.2-1.8v-4.1h-0.4c-2.9-20.2-20-35.8-40.9-35.8H229.8c-21 0-38.1 15.6-41 35.8z" fill="#D6B585" p-id="6829"></path><path d="M488.1 610.4c0 2.5-2 4.5-4.5 4.5s-4.5-2-4.5-4.5v-174c0-2.5 2-4.5 4.5-4.5s4.5 2 4.5 4.5v174z" fill="#FFFFFF" p-id="6830"></path><path d="M472.9 457.3c0 21.8 17.6 39.4 39.4 39.4 21.8 0 39.4-17.6 39.4-39.4 0-21.8-17.6-39.4-39.4-39.4-21.7 0.1-39.4 17.7-39.4 39.4z" fill="#78909C" p-id="6831"></path><path d="M492 457.3c-0.1 11.2 9 20.4 20.2 20.5 11.2 0.1 20.4-9 20.5-20.2v-0.3c0.1-11.2-9-20.4-20.2-20.5-11.2-0.1-20.4 9-20.5 20.2v0.3z" fill="#CFD8DC" p-id="6832"></path></svg>