<?xml version="1.0" standalone="no"?><!DOCTYPE svg PUBLIC "-//W3C//DTD SVG 1.1//EN" "http://www.w3.org/Graphics/SVG/1.1/DTD/svg11.dtd"><svg t="1773809874448" class="icon" viewBox="0 0 1024 1024" version="1.1" xmlns="http://www.w3.org/2000/svg" p-id="8845" xmlns:xlink="http://www.w3.org/1999/xlink" width="200" height="200"><path d="M614 290.7H305.7c-13.8 0-25 11.2-25 25s11.2 25 25 25H614c13.8 0 25-11.2 25-25s-11.2-25-25-25zM614 430.8H305.7c-13.8 0-25 11.2-25 25s11.2 25 25 25H614c13.8 0 25-11.2 25-25s-11.2-25-25-25zM893.4 714.2c-13.2-4.1-27.2 3.3-31.2 16.5l-29.4 95.6c-21-34.2-52.4-61.6-89.9-78.1 22.3-21.1 36.1-50.5 36.1-83.1 0-63.8-53.2-115.8-118.5-115.8S542 601.2 542 665.1c0 32.5 13.8 61.9 35.9 82.9-70.1 30.7-119.1 99.4-119.1 179.1 0 13.8 11.2 25 25 25s25-11.2 25-25c0-80.6 67.9-146.2 151.3-146.2 75.4 0 138.1 53.6 149.4 123.5-0.2 3.1 0.2 6.3 1.2 9.2 0.4 4.5 0.7 9 0.7 13.6 0 13.8 11.2 25 25 25s25-11.2 25-25c0-6.8-0.4-13.5-1.1-20.2l49.6-161.4c4.1-13.3-3.3-27.3-16.5-31.4zM660.5 599.3c37.8 0 68.5 29.5 68.5 65.8s-30.7 65.8-68.5 65.8-68.5-29.6-68.5-65.8c0-36.3 30.7-65.8 68.5-65.8z" fill="#707070" p-id="8846"></path><path d="M385.1 870.2H152.8V122h130.6v70.1c0 13.8 11.2 25 25 25h294.8c13.8 0 25-11.2 25-25V122h130.6v374.1c0 13.8 11.2 25 25 25s25-11.2 25-25V97c0-13.8-11.2-25-25-25h-656c-13.8 0-25 11.2-25 25v798.3c0 13.8 11.2 25 25 25h257.3c13.8 0 25-11.2 25-25s-11.2-25.1-25-25.1z m193.1-703.1H333.4V122h244.8v45.1z" fill="#707070" p-id="8847"></path></svg>