<?xml version="1.0" standalone="no"?><!DOCTYPE svg PUBLIC "-//W3C//DTD SVG 1.1//EN" "http://www.w3.org/Graphics/SVG/1.1/DTD/svg11.dtd"><svg t="1773809820902" class="icon" viewBox="0 0 1024 1024" version="1.1" xmlns="http://www.w3.org/2000/svg" p-id="8445" xmlns:xlink="http://www.w3.org/1999/xlink" width="200" height="200"><path d="M518.144 71.168c-243.2 0-440.832 197.632-440.832 440.832 0 243.2 197.632 440.832 440.832 440.832 243.2 0 440.832-197.632 440.832-440.832 0-242.688-197.632-440.832-440.832-440.832z m0 820.736c-209.408 0-379.392-169.984-379.392-379.392 0-209.408 169.984-379.392 379.392-379.392 209.408 0 379.392 169.984 379.392 379.392 0 208.896-169.984 379.392-379.392 379.392z" p-id="8446" fill="#87c38f"></path><path d="M420.352 625.664l-120.832-138.24-46.592 40.448 159.232 181.248L783.36 425.984l-37.376-48.64z" p-id="8447" fill="#87c38f"></path></svg>